<?xml version="1.0" standalone="no"?><svg xmlns="http://www.w3.org/2000/svg" viewBox="0 0 1440 320"><path fill="#00cba9" fill-opacity="1" d="M0,128L8,149.3C16,171,32,213,48,208C64,203,80,149,96,138.7C112,128,128,160,144,186.7C160,213,176,235,192,208C208,181,224,107,240,96C256,85,272,139,288,170.7C304,203,320,213,336,202.7C352,192,368,160,384,128C400,96,416,64,432,90.7C448,117,464,203,480,224C496,245,512,203,528,197.3C544,192,560,224,576,218.7C592,213,608,171,624,165.3C640,160,656,192,672,176C688,160,704,96,720,90.7C736,85,752,139,768,144C784,149,800,107,816,128C832,149,848,235,864,245.3C880,256,896,192,912,160C928,128,944,128,960,117.3C976,107,992,85,1008,117.3C1024,149,1040,235,1056,256C1072,277,1088,235,1104,229.3C1120,224,1136,256,1152,256C1168,256,1184,224,1200,181.3C1216,139,1232,85,1248,85.3C1264,85,1280,139,1296,181.3C1312,224,1328,256,1344,256C1360,256,1376,224,1392,213.3C1408,203,1424,213,1432,218.7L1440,224L1440,0L1432,0C1424,0,1408,0,1392,0C1376,0,1360,0,1344,0C1328,0,1312,0,1296,0C1280,0,1264,0,1248,0C1232,0,1216,0,1200,0C1184,0,1168,0,1152,0C1136,0,1120,0,1104,0C1088,0,1072,0,1056,0C1040,0,1024,0,1008,0C992,0,976,0,960,0C944,0,928,0,912,0C896,0,880,0,864,0C848,0,832,0,816,0C800,0,784,0,768,0C752,0,736,0,720,0C704,0,688,0,672,0C656,0,640,0,624,0C608,0,592,0,576,0C560,0,544,0,528,0C512,0,496,0,480,0C464,0,448,0,432,0C416,0,400,0,384,0C368,0,352,0,336,0C320,0,304,0,288,0C272,0,256,0,240,0C224,0,208,0,192,0C176,0,160,0,144,0C128,0,112,0,96,0C80,0,64,0,48,0C32,0,16,0,8,0L0,0Z"></path></svg>